<svg xmlns="http://www.w3.org/2000/svg" 
     width="100" 
     height="100" 
     viewBox="0 0 24 24" 
     fill="none" 
     stroke="currentColor" 
     stroke-width="1.5" 
     stroke-linecap="round" 
     stroke-linejoin="round">
  
  <path 
    stroke="#FFFFFF" 
    d="M12 22s8-4 8-10V5l-8-3-8 3v7c0 6 8 10 8 10z"
  />
  
  <path 
    fill="#D946EF" 
    stroke="none"
    stroke-width="0"
    d="M10.87 15.82a.83.83 0 0 0 .54.51.81.81 0 0 0 .97-.24l1.83-2.91a.57.57 0 0 0 .09-.58l-.6-1a.58.58 0 0 0-.52-.24H12.5a.5.5 0 0 1-.45-.77l2.1-3.64a.82.82 0 0 0-1.22-1.07l-2.1 3.64a.5.5 0 0 1-.45.77h-1.09a.58.58 0 0 0-.52.24l-.6 1a.57.57 0 0 0 .09.58l1.83 2.91"
  />
</svg>